<svg xmlns="http://www.w3.org/2000/svg" viewBox="0 0 180 180" fill="none" shape-rendering="auto">
    <desc>"Bottts" by "Pablo Stanley", licensed under "Free for personal and commercial use". /
        Remix of the original. - Created with dicebear.com</desc>
    <metadata xmlns:dc="http://purl.org/dc/elements/1.1/" xmlns:cc="http://creativecommons.org/ns#"
        xmlns:rdf="http://www.w3.org/1999/02/22-rdf-syntax-ns#">
        <rdf:RDF>
            <cc:Work>
                <dc:title>Bottts</dc:title>
                <dc:creator>
                    <cc:Agent rdf:about="https://twitter.com/pablostanley">
                        <dc:title>Pablo Stanley</dc:title>
                    </cc:Agent>
                </dc:creator>
                <dc:source>https://bottts.com/</dc:source>
                <cc:license rdf:resource="https://bottts.com/" />
            </cc:Work>
        </rdf:RDF>
    </metadata>
    <mask id="viewboxMask">
        <rect width="180" height="180" rx="0" ry="0" x="0" y="0" fill="#fff" />
    </mask>
    <g mask="url(#viewboxMask)">
        <g transform="translate(0 66)">
            <g opacity=".9" stroke="#2A3544">
                <ellipse cx="32.5" cy="23" rx="16.5" ry="18" stroke-width="6" />
                <path d="M29.51 36.76c-7.4 4.29-17 1.55-21.42-6.1" stroke-width="4" />
                <ellipse cx="28.5" cy="52.5" rx="16.5" ry="14.5" stroke-width="4" />
            </g>
            <g opacity=".9" stroke="#2A3544">
                <path d="M168.6 60.42c-4.27-7.41-13.95-9.84-21.6-5.42" stroke-width="4" />
                <ellipse cx="148.5" cy="22.5" rx="16.5" ry="15.5" stroke-width="6" />
            </g>
            <mask id="sidesCables02-a" style="mask-type:luminance" maskUnits="userSpaceOnUse" x="21"
                y="0" width="138" height="72">
                <g fill="#fff">
                    <rect x="21" y="27" width="16" height="22" rx="2" />
                    <rect x="22" y="60" width="16" height="12" rx="2" />
                    <rect x="143" y="42" width="16" height="22" rx="2" />
                    <rect x="143" width="16" height="22" rx="2" />
                </g>
            </mask>
            <g mask="url(#sidesCables02-a)">
                <path d="M0 0h180v76H0V0Z" fill="#1e88e5" />
                <path d="M0 0h180v76H0V0Z" fill="#fff" fill-opacity=".3" />
            </g>
        </g>
        <g transform="translate(41)">
            <mask id="topLights-a" style="mask-type:luminance" maskUnits="userSpaceOnUse" x="10"
                y="22" width="80" height="30">
                <g fill="#fff">
                    <path d="M10 42c0-1.1.9-2 2-2h76a2 2 0 0 1 2 2v10H10V42Z" />
                    <path
                        d="M18 27a5 5 0 0 1 5-5h6a5 5 0 0 1 5 5v25H18V27ZM42 27a5 5 0 0 1 5-5h6a5 5 0 0 1 5 5v25H42V27ZM66 27a5 5 0 0 1 5-5h6a5 5 0 0 1 5 5v25H66V27Z" />
                </g>
            </mask>
            <g mask="url(#topLights-a)">
                <path d="M0 0h100v52H0V0Z" fill="#1e88e5" />
                <path d="M0 0h100v52H0V0Z" fill="#fff" fill-opacity=".3" />
                <path fill="#fff" fill-opacity=".6" d="M0 0h100v40H0z" />
                <rect x="24" y="28" width="4" height="8" rx="2" fill="#fff" fill-opacity=".6" />
                <rect x="48" y="28" width="4" height="8" rx="2" fill="#fff" fill-opacity=".6" />
                <rect x="72" y="28" width="4" height="8" rx="2" fill="#fff" fill-opacity=".6" />
            </g>
        </g>
        <g transform="translate(25 44)">
            <mask id="faceRound02-a" style="mask-type:luminance" maskUnits="userSpaceOnUse" x="0"
                y="0" width="130" height="120">
                <path fill-rule="evenodd" clip-rule="evenodd"
                    d="M0 31v-1c.18-.48.4-1.5 1-3 .83-3.06 2.78-6.56 6-10C16.7 6.6 35.17 0 65 0s48.3 6.6 58 17c3.22 3.44 5.17 6.94 6 10 .6 1.5.82 2.52 1 3v40c0-.1-.03.5 0 1a53.93 53.93 0 0 1-1 6c-1.19 6-3.4 11.91-7 17-9.72 16.34-27.74 26-57 26s-47.28-9.66-57-26C4.4 88.91 2.2 83 1 77a53.95 53.95 0 0 1-1-6c.03-.45 0-1.32 0-1V31Z"
                    fill="#fff" />
            </mask>
            <g mask="url(#faceRound02-a)">
                <path d="M-4-2h138v124H-4V-2Z" fill="#1e88e5" />
                <g transform="translate(-1 -1)">
                    <g fill="#000">
                        <path
                            d="M27.3 65.2a2.1 2.1 0 1 0 0-4.2 2.1 2.1 0 0 0 0 4.2ZM35.7 69.41a2.1 2.1 0 1 1-4.2 0 2.1 2.1 0 0 1 4.2 0ZM35.7 82.03a2.1 2.1 0 1 1-4.2 0 2.1 2.1 0 0 1 4.2 0ZM35.7 94.66a2.1 2.1 0 1 1-4.2 0 2.1 2.1 0 0 1 4.2 0ZM34.1 109.2a2.1 2.1 0 1 0 0-4.2 2.1 2.1 0 0 0 0 4.2ZM49.2 107.1a2.1 2.1 0 1 1-4.2 0 2.1 2.1 0 0 1 4.2 0ZM27.3 90.45a2.1 2.1 0 1 0 0-4.2 2.1 2.1 0 0 0 0 4.2ZM29.2 101.1a2.1 2.1 0 1 1-4.2 0 2.1 2.1 0 0 1 4.2 0ZM51.1 103.2a2.1 2.1 0 1 0 0-4.2 2.1 2.1 0 0 0 0 4.2ZM42 88.34a2.1 2.1 0 1 1-4.2 0 2.1 2.1 0 0 1 4.2 0ZM39.9 103.07a2.1 2.1 0 1 0 0-4.2 2.1 2.1 0 0 0 0 4.2ZM29.4 75.72a2.1 2.1 0 1 1-4.2 0 2.1 2.1 0 0 1 4.2 0ZM39.9 77.83a2.1 2.1 0 1 0 0-4.2 2.1 2.1 0 0 0 0 4.2ZM10.5 94.66a2.1 2.1 0 1 1-4.2 0 2.1 2.1 0 0 1 4.2 0ZM8.4 84.14a2.1 2.1 0 1 0 0-4.2 2.1 2.1 0 0 0 0 4.2ZM10.5 107.28a2.1 2.1 0 1 1-4.2 0 2.1 2.1 0 0 1 4.2 0ZM2.1 90.45a2.1 2.1 0 1 0 0-4.2 2.1 2.1 0 0 0 0 4.2ZM4.2 100.97a2.1 2.1 0 1 1-4.2 0 2.1 2.1 0 0 1 4.2 0ZM14.7 90.45a2.1 2.1 0 1 0 0-4.2 2.1 2.1 0 0 0 0 4.2ZM16.8 100.97a2.1 2.1 0 1 1-4.2 0 2.1 2.1 0 0 1 4.2 0ZM8.4 71.52a2.1 2.1 0 1 0 0-4.2 2.1 2.1 0 0 0 0 4.2ZM4.2 75.72a2.1 2.1 0 1 1-4.2 0 2.1 2.1 0 0 1 4.2 0ZM14.7 65.2a2.1 2.1 0 1 0 0-4.2 2.1 2.1 0 0 0 0 4.2ZM16.8 75.72a2.1 2.1 0 1 1-4.2 0 2.1 2.1 0 0 1 4.2 0ZM21 96.76a2.1 2.1 0 1 0 0-4.2 2.1 2.1 0 0 0 0 4.2ZM23.1 82.03a2.1 2.1 0 1 1-4.2 0 2.1 2.1 0 0 1 4.2 0ZM21 109.38a2.1 2.1 0 1 0 0-4.2 2.1 2.1 0 0 0 0 4.2ZM35.7 119.9a2.1 2.1 0 1 1-4.2 0 2.1 2.1 0 0 1 4.2 0ZM27.3 115.69a2.1 2.1 0 1 0 0-4.2 2.1 2.1 0 0 0 0 4.2ZM42 113.59a2.1 2.1 0 1 1-4.2 0 2.1 2.1 0 0 1 4.2 0ZM8.4 122a2.1 2.1 0 1 0 0-4.2 2.1 2.1 0 0 0 0 4.2ZM4.2 113.59a2.1 2.1 0 1 1-4.2 0 2.1 2.1 0 0 1 4.2 0ZM14.7 115.69a2.1 2.1 0 1 0 0-4.2 2.1 2.1 0 0 0 0 4.2ZM23.1 119.9a2.1 2.1 0 1 1-4.2 0 2.1 2.1 0 0 1 4.2 0ZM21 71.52a2.1 2.1 0 1 0 0-4.2 2.1 2.1 0 0 0 0 4.2Z"
                            fill-opacity=".2" />
                        <path
                            d="M117.3 4.2a2.1 2.1 0 1 0 0-4.2 2.1 2.1 0 0 0 0 4.2ZM125.7 8.41a2.1 2.1 0 1 1-4.2 0 2.1 2.1 0 0 1 4.2 0ZM125.7 21.03a2.1 2.1 0 1 1-4.2 0 2.1 2.1 0 0 1 4.2 0ZM125.7 33.66a2.1 2.1 0 1 1-4.2 0 2.1 2.1 0 0 1 4.2 0ZM123.6 48.38a2.1 2.1 0 1 0 0-4.2 2.1 2.1 0 0 0 0 4.2ZM119.4 27.34a2.1 2.1 0 1 1-4.2 0 2.1 2.1 0 0 1 4.2 0ZM117.3 42.07a2.1 2.1 0 1 0 0-4.2 2.1 2.1 0 0 0 0 4.2ZM132 27.34a2.1 2.1 0 1 1-4.2 0 2.1 2.1 0 0 1 4.2 0ZM129.9 42.07a2.1 2.1 0 1 0 0-4.2 2.1 2.1 0 0 0 0 4.2ZM119.4 14.72a2.1 2.1 0 1 1-4.2 0 2.1 2.1 0 0 1 4.2 0ZM129.9 16.83a2.1 2.1 0 1 0 0-4.2 2.1 2.1 0 0 0 0 4.2ZM100.5 33.66a2.1 2.1 0 1 1-4.2 0 2.1 2.1 0 0 1 4.2 0ZM98.4 23.14a2.1 2.1 0 1 0 0-4.2 2.1 2.1 0 0 0 0 4.2ZM100.5 46.28a2.1 2.1 0 1 1-4.2 0 2.1 2.1 0 0 1 4.2 0ZM92.1 29.45a2.1 2.1 0 1 0 0-4.2 2.1 2.1 0 0 0 0 4.2ZM106.8 27.34a2.1 2.1 0 1 1-4.2 0 2.1 2.1 0 0 1 4.2 0ZM104.7 42.07a2.1 2.1 0 1 0 0-4.2 2.1 2.1 0 0 0 0 4.2ZM100.5 8.41a2.1 2.1 0 1 1-4.2 0 2.1 2.1 0 0 1 4.2 0ZM92.1 16.83a2.1 2.1 0 1 0 0-4.2 2.1 2.1 0 0 0 0 4.2ZM106.8 2.1a2.1 2.1 0 1 1-4.2 0 2.1 2.1 0 0 1 4.2 0ZM104.7 16.83a2.1 2.1 0 1 0 0-4.2 2.1 2.1 0 0 0 0 4.2ZM113.1 33.66a2.1 2.1 0 1 1-4.2 0 2.1 2.1 0 0 1 4.2 0ZM111 23.14a2.1 2.1 0 1 0 0-4.2 2.1 2.1 0 0 0 0 4.2ZM113.1 46.28a2.1 2.1 0 1 1-4.2 0 2.1 2.1 0 0 1 4.2 0ZM123.6 61a2.1 2.1 0 1 0 0-4.2 2.1 2.1 0 0 0 0 4.2ZM132 52.59a2.1 2.1 0 1 1-4.2 0 2.1 2.1 0 0 1 4.2 0ZM104.7 54.69a2.1 2.1 0 1 0 0-4.2 2.1 2.1 0 0 0 0 4.2ZM113.1 58.9a2.1 2.1 0 1 1-4.2 0 2.1 2.1 0 0 1 4.2 0ZM111 10.52a2.1 2.1 0 1 0 0-4.2 2.1 2.1 0 0 0 0 4.2Z"
                            fill-opacity=".1" />
                    </g>
                </g>
            </g>
        </g>
        <g transform="translate(52 124)">
            <path fill-rule="evenodd" clip-rule="evenodd"
                d="M18 10.22C18 21.78 24.47 28 38 28c13.52 0 20-6.34 20-17.78C58 9.5 57.17 8 55 8H21c-2.05 0-3 1.38-3 2.22Z"
                fill="#000" fill-opacity=".8" />
            <mask id="mouthSmile02-a" style="mask-type:luminance" maskUnits="userSpaceOnUse" x="18"
                y="8" width="40" height="20">
                <path fill-rule="evenodd" clip-rule="evenodd"
                    d="M18 10.22C18 21.78 24.47 28 38 28c13.52 0 20-6.34 20-17.78C58 9.5 57.17 8 55 8H21c-2.05 0-3 1.38-3 2.22Z"
                    fill="#fff" />
            </mask>
            <g mask="url(#mouthSmile02-a)">
                <rect x="30" y="2" width="16" height="14" rx="2" fill="#fff" />
            </g>
        </g>
        <g transform="translate(38 76)">
            <g fill-rule="evenodd" clip-rule="evenodd">
                <path
                    d="M53 0c34.75 0 49 17.47 49 31 0 13.53-19.59 17-49 17-29.05 0-51-3.47-51-17S17.11 0 53 0Z"
                    fill="#000" fill-opacity=".8" />
                <path
                    d="M28.82 34.65c-6.53-1.35-11.24-6.34-10.52-11.14.72-4.79 6.6-7.58 13.12-6.23 6.53 1.36 11.24 6.35 10.52 11.15-.72 4.8-6.6 7.59-13.12 6.23ZM75.42 34.65c-6.52 1.36-12.4-1.43-13.12-6.23-.72-4.8 4-9.8 10.52-11.15 6.52-1.35 12.4 1.44 13.12 6.24.72 4.81-4 9.8-10.52 11.15Z"
                    fill="#25A6F5" />
            </g>
        </g>
    </g>
</svg>